<svg width="45" height="45" viewBox="0 0 45 45" fill="none" xmlns="http://www.w3.org/2000/svg">
<path fill-rule="evenodd" clip-rule="evenodd" d="M44 22.5C44 34.3741 34.3741 44 22.5 44C10.6259 44 1 34.3741 1 22.5C1 10.6259 10.6259 1 22.5 1C34.3741 1 44 10.6259 44 22.5ZM45 22.5C45 34.9264 34.9264 45 22.5 45C10.0736 45 0 34.9264 0 22.5C0 10.0736 10.0736 0 22.5 0C34.9264 0 45 10.0736 45 22.5ZM27.7923 7.83077L26.2692 7L26.5462 8.73077L25.3 9.90769L27.1 10.1154L27.8615 11.6385L28.6231 10.1154L30.2846 9.83846L29.0385 8.66154L29.3154 7L27.7923 7.83077ZM27.7231 22.7154L25.9231 17.4538H22.4615L20.6615 22.7154H27.7231ZM10 14.9615L11.6615 15.2385L12.4231 16.7615L13.3231 15.2385L14.9846 14.9615L13.7385 13.7846L14.0154 12.1231L12.4923 12.9538L10.9692 12.1231L11.2462 13.7846L10 14.9615ZM20.8692 17.4538H16.8538L12.8385 22.7154H19.0692L20.8692 17.4538ZM19 24.2385H12.8385L22.6 36.4923L19 24.2385ZM20.5923 24.2385L24.1923 37.1154L27.7923 24.2385H20.5923ZM29.3154 24.2385L25.7154 36.5615L35.5462 24.2385H29.3154ZM27.5154 17.4538L29.3154 22.7154H35.6154L31.6 17.4538H27.5154Z" fill="white"/>
<path fill-rule="evenodd" clip-rule="evenodd" d="M27.7923 7.83077L26.2692 7L26.5462 8.73077L25.3 9.90769L27.1 10.1154L27.8615 11.6385L28.6231 10.1154L30.2846 9.83846L29.0385 8.66154L29.3154 7L27.7923 7.83077ZM27.9914 8.86127L27.7923 8.96986L27.5785 8.85322L27.6171 9.09479L27.5476 9.1604L27.7523 9.18402L27.8615 9.4024L27.9564 9.21271L28.1343 9.18306L27.9645 9.02271L27.9914 8.86127ZM35.6154 22.7154H29.3154L27.5154 17.4538H31.6L35.6154 22.7154ZM33.5943 21.7154L31.1052 18.4538H28.9144L30.0302 21.7154H33.5943ZM25.7154 36.5615L29.3154 24.2385H35.5462L25.7154 36.5615ZM28.0982 31.9711L33.4692 25.2385H30.0651L28.0982 31.9711ZM19.0692 22.7154L20.8692 17.4538H16.8538L12.8385 22.7154H19.0692ZM14.8596 21.7154H18.3544L19.4702 18.4538H17.3486L14.8596 21.7154ZM12.8385 24.2385H19L22.6 36.4923L12.8385 24.2385ZM14.9136 25.2385L20.2018 31.8768L18.2515 25.2385H14.9136ZM24.1923 37.1154L20.5923 24.2385H27.7923L24.1923 37.1154ZM24.1923 33.4013L26.4744 25.2385H21.9102L24.1923 33.4013ZM12.4231 16.7615L11.6615 15.2385L10 14.9615L11.2462 13.7846L10.9692 12.1231L12.4923 12.9538L14.0154 12.1231L13.7385 13.7846L14.9846 14.9615L13.3231 15.2385L12.4231 16.7615ZM12.8343 14.3061L12.6645 14.1458L12.6914 13.9844L12.4923 14.0929L12.2932 13.9844L12.3201 14.1458L12.1504 14.3061L12.3282 14.3358L12.4963 14.6719L12.6991 14.3287L12.8343 14.3061ZM45 22.5C45 34.9264 34.9264 45 22.5 45C10.0736 45 0 34.9264 0 22.5C0 10.0736 10.0736 0 22.5 0C34.9264 0 45 10.0736 45 22.5ZM22.5 44C34.3741 44 44 34.3741 44 22.5C44 10.6259 34.3741 1 22.5 1C10.6259 1 1 10.6259 1 22.5C1 34.3741 10.6259 44 22.5 44ZM25.2083 18.4538H23.1763L22.0605 21.7154H26.3241L25.2083 18.4538ZM25.9231 17.4538H22.4615L20.6615 22.7154H27.7231L25.9231 17.4538Z" fill="black"/>
</svg>
