<svg width="46" height="54" viewBox="0 0 46 54" fill="none" xmlns="http://www.w3.org/2000/svg">
<mask id="path-1-inside-1_1_20" fill="white">
<path d="M12.5805 25.8652L20.0323 31.4935C20.4062 31.7735 20.8599 31.8781 21.2888 31.8178C21.7176 31.7576 22.1252 31.5325 22.4088 31.1568L34.1527 15.6081C34.4363 15.2324 34.5408 14.7769 34.4806 14.3445C34.4203 13.9157 34.1953 13.5063 33.7948 13.2033C33.4049 12.9303 32.9707 12.8382 32.5578 12.8949C32.1289 12.9552 31.7214 13.1784 31.4396 13.5524L21.4926 26.7229C21.0655 27.2882 20.2627 27.3999 19.6991 26.9746L14.6344 23.1503C14.2587 22.8667 13.8015 22.7622 13.3708 22.8224C12.9402 22.8809 12.5326 23.1078 12.2491 23.4817C11.9655 23.8574 11.861 24.3146 11.9194 24.7452C11.9779 25.1741 12.2048 25.5817 12.5805 25.867V25.8652ZM18.4214 33.4854L11.0369 27.9085C10.0977 27.1996 9.53414 26.1753 9.38351 25.0943C9.23287 24.0151 9.49515 22.8774 10.204 21.9381C10.9129 20.9989 11.9389 20.4354 13.0199 20.2865C14.0992 20.1359 15.2387 20.3981 16.1761 21.107L20.2202 24.1604L29.3928 12.0141C30.1052 11.0749 31.1295 10.5114 32.2087 10.3607C33.256 10.2154 34.3601 10.46 35.2834 11.1245L35.3649 11.1795C36.3023 11.8883 36.8677 12.9126 37.0183 13.9954C37.1689 15.0746 36.9066 16.2124 36.1996 17.1498L24.4006 32.7695C23.6953 33.6644 22.6958 34.2031 21.6414 34.3502C20.5923 34.4973 19.4847 34.2528 18.5614 33.5864L18.425 33.4836L18.4214 33.4854ZM38.9889 40.7742C36.6408 42.7874 33.9046 44.3611 30.9062 45.3659L39.3646 53.8243L38.0958 47.7317C37.9522 47.0405 38.397 46.3618 39.0882 46.2183C39.2654 46.181 39.4426 46.1828 39.6092 46.2183L45.7 47.4871L38.9871 40.7742H38.9889ZM15.4956 45.3659C12.4972 44.3628 9.76097 42.7892 7.41289 40.7742L0.700012 47.4871L6.79086 46.2183C6.95745 46.1828 7.13466 46.181 7.31187 46.2183C8.00301 46.3618 8.44782 47.0405 8.30427 47.7317L7.03719 53.8243L15.4956 45.3659ZM7.86124 37.696L8.24225 38.0682C12.141 41.7773 17.4078 44.0509 23.2009 44.0509C29.1925 44.0509 34.617 41.6231 38.5423 37.696C42.4676 33.7707 44.8955 28.3462 44.8955 22.3546C44.8955 16.363 42.4676 10.9402 38.5423 7.01316C34.617 3.08787 29.1925 0.660034 23.2009 0.660034C17.2111 0.660034 11.7865 3.08787 7.86124 7.01316C3.93594 10.9385 1.50634 16.363 1.50634 22.3546C1.50634 28.3444 3.93417 33.769 7.86124 37.696Z"/>
</mask>
<path d="M12.5805 25.8652L20.0323 31.4935C20.4062 31.7735 20.8599 31.8781 21.2888 31.8178C21.7176 31.7576 22.1252 31.5325 22.4088 31.1568L34.1527 15.6081C34.4363 15.2324 34.5408 14.7769 34.4806 14.3445C34.4203 13.9157 34.1953 13.5063 33.7948 13.2033C33.4049 12.9303 32.9707 12.8382 32.5578 12.8949C32.1289 12.9552 31.7214 13.1784 31.4396 13.5524L21.4926 26.7229C21.0655 27.2882 20.2627 27.3999 19.6991 26.9746L14.6344 23.1503C14.2587 22.8667 13.8015 22.7622 13.3708 22.8224C12.9402 22.8809 12.5326 23.1078 12.2491 23.4817C11.9655 23.8574 11.861 24.3146 11.9194 24.7452C11.9779 25.1741 12.2048 25.5817 12.5805 25.867V25.8652ZM18.4214 33.4854L11.0369 27.9085C10.0977 27.1996 9.53414 26.1753 9.38351 25.0943C9.23287 24.0151 9.49515 22.8774 10.204 21.9381C10.9129 20.9989 11.9389 20.4354 13.0199 20.2865C14.0992 20.1359 15.2387 20.3981 16.1761 21.107L20.2202 24.1604L29.3928 12.0141C30.1052 11.0749 31.1295 10.5114 32.2087 10.3607C33.256 10.2154 34.3601 10.46 35.2834 11.1245L35.3649 11.1795C36.3023 11.8883 36.8677 12.9126 37.0183 13.9954C37.1689 15.0746 36.9066 16.2124 36.1996 17.1498L24.4006 32.7695C23.6953 33.6644 22.6958 34.2031 21.6414 34.3502C20.5923 34.4973 19.4847 34.2528 18.5614 33.5864L18.425 33.4836L18.4214 33.4854ZM38.9889 40.7742C36.6408 42.7874 33.9046 44.3611 30.9062 45.3659L39.3646 53.8243L38.0958 47.7317C37.9522 47.0405 38.397 46.3618 39.0882 46.2183C39.2654 46.181 39.4426 46.1828 39.6092 46.2183L45.7 47.4871L38.9871 40.7742H38.9889ZM15.4956 45.3659C12.4972 44.3628 9.76097 42.7892 7.41289 40.7742L0.700012 47.4871L6.79086 46.2183C6.95745 46.1828 7.13466 46.181 7.31187 46.2183C8.00301 46.3618 8.44782 47.0405 8.30427 47.7317L7.03719 53.8243L15.4956 45.3659ZM7.86124 37.696L8.24225 38.0682C12.141 41.7773 17.4078 44.0509 23.2009 44.0509C29.1925 44.0509 34.617 41.6231 38.5423 37.696C42.4676 33.7707 44.8955 28.3462 44.8955 22.3546C44.8955 16.363 42.4676 10.9402 38.5423 7.01316C34.617 3.08787 29.1925 0.660034 23.2009 0.660034C17.2111 0.660034 11.7865 3.08787 7.86124 7.01316C3.93594 10.9385 1.50634 16.363 1.50634 22.3546C1.50634 28.3444 3.93417 33.769 7.86124 37.696Z" fill="white"/>
<path d="M12.5805 25.8652L13.1831 25.0672L11.5805 23.8567V25.8652H12.5805ZM20.0323 31.4935L19.4296 32.2915L19.4329 32.294L20.0323 31.4935ZM22.4088 31.1568L21.6108 30.5541L21.6106 30.5544L22.4088 31.1568ZM34.1527 15.6081L34.9507 16.2108L34.9509 16.2105L34.1527 15.6081ZM34.4806 14.3445L35.471 14.2065L35.4709 14.2054L34.4806 14.3445ZM33.7948 13.2033L34.3981 12.4058L34.3834 12.3946L34.3682 12.384L33.7948 13.2033ZM32.5578 12.8949L32.4217 11.9042L32.4187 11.9046L32.5578 12.8949ZM31.4396 13.5524L32.2376 14.155L32.2382 14.1542L31.4396 13.5524ZM21.4926 26.7229L22.2904 27.3257L22.2905 27.3256L21.4926 26.7229ZM19.6991 26.9746L19.0966 27.7726L19.0967 27.7728L19.6991 26.9746ZM14.6344 23.1503L15.237 22.3522L15.2368 22.3521L14.6344 23.1503ZM13.3708 22.8224L13.5054 23.8134L13.5094 23.8128L13.3708 22.8224ZM12.2491 23.4817L11.4522 22.8775L11.4509 22.8793L12.2491 23.4817ZM11.9194 24.7452L10.9285 24.8798L10.9286 24.8803L11.9194 24.7452ZM12.5805 25.867L11.9757 26.6634L13.5805 27.8821V25.867H12.5805ZM18.4214 33.4854L17.8188 34.2834L18.3136 34.6571L18.8684 34.38L18.4214 33.4854ZM11.0369 27.9085L11.6396 27.1105L11.6393 27.1103L11.0369 27.9085ZM9.38351 25.0943L10.3739 24.9563L10.3739 24.9561L9.38351 25.0943ZM13.0199 20.2865L13.1564 21.2772L13.1582 21.2769L13.0199 20.2865ZM16.1761 21.107L15.573 21.9046L15.5736 21.9051L16.1761 21.107ZM20.2202 24.1604L19.6176 24.9585L20.4156 25.561L21.0182 24.7631L20.2202 24.1604ZM29.3928 12.0141L28.596 11.4098L28.5948 11.4115L29.3928 12.0141ZM32.2087 10.3607L32.0713 9.37023L32.0705 9.37034L32.2087 10.3607ZM35.2834 11.1245L34.6992 11.9362L34.7117 11.9452L34.7245 11.9538L35.2834 11.1245ZM35.3649 11.1795L35.968 10.3818L35.9463 10.3654L35.9237 10.3502L35.3649 11.1795ZM37.0183 13.9954L36.0278 14.1332L36.0279 14.1336L37.0183 13.9954ZM36.1996 17.1498L36.9975 17.7526L36.9979 17.752L36.1996 17.1498ZM24.4006 32.7695L25.186 33.3885L25.1924 33.3804L25.1986 33.3722L24.4006 32.7695ZM21.6414 34.3502L21.5033 33.3598L21.5026 33.3599L21.6414 34.3502ZM18.5614 33.5864L17.9598 34.3852L17.9679 34.3913L17.9762 34.3973L18.5614 33.5864ZM18.425 33.4836L19.0266 32.6849L18.532 32.3123L17.978 32.5891L18.425 33.4836ZM38.9889 40.7742L39.6398 41.5334L41.6917 39.7742H38.9889V40.7742ZM30.9062 45.3659L30.5884 44.4177L29.057 44.9309L30.1991 46.073L30.9062 45.3659ZM39.3646 53.8243L38.6575 54.5314L41.0267 56.9006L40.3436 53.6204L39.3646 53.8243ZM38.0958 47.7317L37.1166 47.935L37.1168 47.9356L38.0958 47.7317ZM39.0882 46.2183L39.2915 47.1974L39.2937 47.1969L39.0882 46.2183ZM39.6092 46.2183L39.4011 47.1964L39.4052 47.1972L39.6092 46.2183ZM45.7 47.4871L45.4961 48.4661L48.7766 49.1495L46.4071 46.78L45.7 47.4871ZM38.9871 40.7742V39.7742H36.5729L38.28 41.4813L38.9871 40.7742ZM15.4956 45.3659L16.2027 46.073L17.3455 44.9302L15.8129 44.4175L15.4956 45.3659ZM7.41289 40.7742L8.0641 40.0153L7.36095 39.412L6.70578 40.0671L7.41289 40.7742ZM0.700012 47.4871L-0.00709447 46.78L-2.37659 49.1495L0.903955 48.4661L0.700012 47.4871ZM6.79086 46.2183L6.99481 47.1972L6.99897 47.1964L6.79086 46.2183ZM7.31187 46.2183L7.10636 47.1969L7.10852 47.1974L7.31187 46.2183ZM8.30427 47.7317L9.28332 47.9353L9.28338 47.935L8.30427 47.7317ZM7.03719 53.8243L6.05814 53.6207L5.37626 56.8994L7.7443 54.5314L7.03719 53.8243ZM7.86124 37.696L7.15408 38.4032L7.1625 38.4114L7.86124 37.696ZM8.24225 38.0682L7.54345 38.7836L7.55298 38.7927L8.24225 38.0682ZM38.5423 37.696L37.8352 36.9889L37.8351 36.9891L38.5423 37.696ZM38.5423 7.01316L39.2496 6.30622L39.2494 6.30606L38.5423 7.01316ZM11.9778 26.6632L19.4296 32.2915L20.635 30.6956L13.1831 25.0672L11.9778 26.6632ZM19.4329 32.294C20.025 32.7374 20.7459 32.9039 21.4279 32.8081L21.1496 30.8276C20.9739 30.8522 20.7875 30.8097 20.6317 30.6931L19.4329 32.294ZM21.4279 32.8081C22.1101 32.7123 22.7583 32.3536 23.2069 31.7592L21.6106 30.5544C21.4921 30.7114 21.3252 30.8029 21.1496 30.8276L21.4279 32.8081ZM23.2067 31.7595L34.9507 16.2108L33.3548 15.0053L21.6108 30.5541L23.2067 31.7595ZM34.9509 16.2105C35.4007 15.6145 35.5663 14.8905 35.471 14.2065L33.4902 14.4825C33.5153 14.6634 33.4719 14.8502 33.3545 15.0056L34.9509 16.2105ZM35.4709 14.2054C35.3738 13.5148 35.0098 12.8686 34.3981 12.4058L33.1914 14.0007C33.3807 14.1439 33.4668 14.3165 33.4903 14.4836L35.4709 14.2054ZM34.3682 12.384C33.7697 11.965 33.0816 11.8136 32.4217 11.9042L32.6939 13.8856C32.8598 13.8628 33.0401 13.8956 33.2213 14.0225L34.3682 12.384ZM32.4187 11.9046C31.7399 12 31.0899 12.3548 30.641 12.9506L32.2382 14.1542C32.3528 14.0021 32.518 13.9103 32.6969 13.8852L32.4187 11.9046ZM30.6416 12.9497L20.6946 26.1202L22.2905 27.3256L32.2376 14.155L30.6416 12.9497ZM20.6947 26.1201C20.5999 26.2455 20.4238 26.2687 20.3016 26.1764L19.0967 27.7728C20.1015 28.5311 21.531 28.331 22.2904 27.3257L20.6947 26.1201ZM20.3017 26.1765L15.237 22.3522L14.0318 23.9483L19.0966 27.7726L20.3017 26.1765ZM15.2368 22.3521C14.6407 21.9022 13.9147 21.7366 13.2323 21.8321L13.5094 23.8128C13.6882 23.7878 13.8766 23.8312 14.032 23.9485L15.2368 22.3521ZM13.2363 21.8315C12.5471 21.9251 11.8993 22.2879 11.4522 22.8775L13.0459 24.0859C13.1659 23.9276 13.3333 23.8367 13.5054 23.8133L13.2363 21.8315ZM11.4509 22.8793C11.001 23.4754 10.8362 24.2001 10.9285 24.8798L12.9103 24.6106C12.8857 24.429 12.9301 24.2394 13.0472 24.0841L11.4509 22.8793ZM10.9286 24.8803C11.0225 25.5686 11.3859 26.2155 11.9757 26.6634L13.1852 25.0706C13.0236 24.9479 12.9334 24.7795 12.9103 24.6101L10.9286 24.8803ZM13.5805 25.867V25.8652H11.5805V25.867H13.5805ZM19.0241 32.6874L11.6396 27.1105L10.4343 28.7065L17.8188 34.2834L19.0241 32.6874ZM11.6393 27.1103C10.9206 26.5679 10.4895 25.7855 10.3739 24.9563L8.39308 25.2323C8.5788 26.5652 9.27477 27.8314 10.4345 28.7067L11.6393 27.1103ZM10.3739 24.9561C10.2585 24.1295 10.459 23.2603 11.0022 22.5405L9.40582 21.3357C8.53129 22.4945 8.20721 23.9007 8.39311 25.2326L10.3739 24.9561ZM11.0022 22.5405C11.5444 21.8222 12.3279 21.3912 13.1564 21.2772L12.8835 19.2959C11.55 19.4795 10.2814 20.1756 9.40582 21.3357L11.0022 22.5405ZM13.1582 21.2769C13.9853 21.1615 14.8558 21.3623 15.573 21.9046L16.7793 20.3094C15.6216 19.434 14.2131 19.1103 12.8817 19.2961L13.1582 21.2769ZM15.5736 21.9051L19.6176 24.9585L20.8227 23.3623L16.7787 20.3089L15.5736 21.9051ZM21.0182 24.7631L30.1908 12.6168L28.5948 11.4115L19.4221 23.5578L21.0182 24.7631ZM30.1895 12.6185C30.7363 11.8976 31.5199 11.4666 32.3469 11.3511L32.0705 9.37034C30.739 9.55618 29.4741 10.2522 28.596 11.4098L30.1895 12.6185ZM32.3461 11.3513C33.1478 11.24 33.9917 11.4269 34.6992 11.9362L35.8675 10.3129C34.7285 9.49302 33.3643 9.19083 32.0713 9.37023L32.3461 11.3513ZM34.7245 11.9538L34.806 12.0087L35.9237 10.3502L35.8422 10.2953L34.7245 11.9538ZM34.7617 11.9771C35.4799 12.5201 35.9123 13.3031 36.0278 14.1332L38.0088 13.8576C37.823 12.5222 37.1248 11.2565 35.968 10.3818L34.7617 11.9771ZM36.0279 14.1336C36.1433 14.9605 35.9426 15.8298 35.4012 16.5476L36.9979 17.752C37.8707 16.5949 38.1945 15.1887 38.0087 13.8572L36.0279 14.1336ZM35.4016 16.5471L23.6027 32.1667L25.1986 33.3722L36.9975 17.7526L35.4016 16.5471ZM23.6152 32.1505C23.0763 32.8343 22.3129 33.2469 21.5033 33.3598L21.7796 35.3406C23.0788 35.1594 24.3144 34.4945 25.186 33.3885L23.6152 32.1505ZM21.5026 33.3599C20.6994 33.4725 19.8531 33.2854 19.1466 32.7755L17.9762 34.3973C19.1163 35.2201 20.4852 35.5221 21.7803 35.3405L21.5026 33.3599ZM19.1631 32.7877L19.0266 32.6849L17.8233 34.2824L17.9598 34.3852L19.1631 32.7877ZM17.978 32.5891L17.9745 32.5909L18.8684 34.38L18.8719 34.3782L17.978 32.5891ZM38.338 40.0151C36.0858 41.946 33.4623 43.4546 30.5884 44.4177L31.2239 46.314C34.347 45.2675 37.1959 43.6287 39.6398 41.5334L38.338 40.0151ZM30.1991 46.073L38.6575 54.5314L40.0717 53.1172L31.6133 44.6587L30.1991 46.073ZM40.3436 53.6204L39.0747 47.5278L37.1168 47.9356L38.3856 54.0282L40.3436 53.6204ZM39.0749 47.5283C39.0435 47.3774 39.1417 47.2285 39.2915 47.1974L38.8848 45.2392C37.6524 45.4951 36.8609 46.7037 37.1166 47.935L39.0749 47.5283ZM39.2937 47.1969C39.3329 47.1887 39.3692 47.1896 39.4011 47.1964L39.8173 45.2401C39.516 45.176 39.1979 45.1734 38.8826 45.2396L39.2937 47.1969ZM39.4052 47.1972L45.4961 48.4661L45.904 46.5081L39.8131 45.2393L39.4052 47.1972ZM46.4071 46.78L39.6942 40.0671L38.28 41.4813L44.9929 48.1942L46.4071 46.78ZM38.9871 41.7742H38.9889V39.7742H38.9871V41.7742ZM15.8129 44.4175C12.9394 43.4563 10.3162 41.9479 8.0641 40.0153L6.76167 41.5331C9.20577 43.6304 12.0549 45.2693 15.1784 46.3142L15.8129 44.4175ZM6.70578 40.0671L-0.00709447 46.78L1.40712 48.1942L8.11999 41.4813L6.70578 40.0671ZM0.903955 48.4661L6.99481 47.1972L6.58692 45.2393L0.496069 46.5081L0.903955 48.4661ZM6.99897 47.1964C7.03085 47.1896 7.06716 47.1887 7.10636 47.1969L7.51739 45.2396C7.20216 45.1734 6.88404 45.176 6.58276 45.2401L6.99897 47.1964ZM7.10852 47.1974C7.25835 47.2285 7.35652 47.3774 7.32517 47.5283L9.28338 47.935C9.53911 46.7037 8.74767 45.4951 7.51523 45.2392L7.10852 47.1974ZM7.32522 47.5281L6.05814 53.6207L8.01624 54.0279L9.28332 47.9353L7.32522 47.5281ZM7.7443 54.5314L16.2027 46.073L14.7885 44.6587L6.33008 53.1172L7.7443 54.5314ZM7.1625 38.4114L7.54351 38.7836L8.94099 37.3528L8.55998 36.9807L7.1625 38.4114ZM7.55298 38.7927C11.6299 42.6713 17.1407 45.0509 23.2009 45.0509V43.0509C17.6748 43.0509 12.652 40.8832 8.93152 37.3437L7.55298 38.7927ZM23.2009 45.0509C29.4683 45.0509 35.1443 42.5101 39.2496 38.403L37.8351 36.9891C34.0898 40.736 28.9168 43.0509 23.2009 43.0509V45.0509ZM39.2494 38.4031C43.3547 34.2979 45.8955 28.6219 45.8955 22.3546H43.8955C43.8955 28.0705 41.5806 33.2436 37.8352 36.9889L39.2494 38.4031ZM45.8955 22.3546C45.8955 16.0871 43.3546 10.4131 39.2496 6.30622L37.8351 7.72011C41.5806 11.4674 43.8955 16.6388 43.8955 22.3546H45.8955ZM39.2494 6.30606C35.1442 2.20079 29.4682 -0.339966 23.2009 -0.339966V1.66003C28.9168 1.66003 34.0899 3.97494 37.8352 7.72027L39.2494 6.30606ZM23.2009 -0.339966C16.9353 -0.339966 11.2594 2.20083 7.15413 6.30606L8.56834 7.72027C12.3137 3.97491 17.4868 1.66003 23.2009 1.66003V-0.339966ZM7.15413 6.30606C3.04902 10.4112 0.506337 16.087 0.506337 22.3546H2.50634C2.50634 16.6389 4.82287 11.4657 8.56834 7.72027L7.15413 6.30606ZM0.506337 22.3546C0.506337 28.6203 3.04717 34.2962 7.15413 38.4031L8.56834 36.9889C4.82117 33.2417 2.50634 28.0686 2.50634 22.3546H0.506337Z" fill="black" mask="url(#path-1-inside-1_1_20)"/>
</svg>
