<svg width="50" height="46" viewBox="0 0 50 46" fill="none" xmlns="http://www.w3.org/2000/svg">
<path d="M47.0434 8.04612L38.2255 13.1376C37.9232 13.3122 37.5651 13.3587 37.2274 13.2677L47.0434 8.04612ZM47.0434 8.04612L48.6396 10.8108L39.8217 15.9005L39.8212 15.9008C39.5191 16.0756 39.2992 16.3625 39.2088 16.699L39.2087 16.6993C39.1182 17.0369 39.1659 17.396 39.3401 17.6977L39.9591 18.7698L33.3047 17.8208L35.8101 11.5831L36.429 12.6548L36.4296 12.6558C36.6039 12.9561 36.89 13.1768 37.2268 13.2675L47.0434 8.04612ZM35.5043 7.27087L35.5114 7.27037C36.0066 7.24296 36.4823 7.48418 36.7364 7.92507L35.5043 7.27087ZM35.5043 7.27087C35.0022 7.3059 34.5629 7.62505 34.3757 8.09391C34.3756 8.09394 34.3756 8.09398 34.3756 8.09401L30.2379 18.3966L30.2375 18.3976C30.088 18.7725 30.1181 19.1943 30.3191 19.544L30.32 19.5454C30.5217 19.8937 30.8726 20.1325 31.2739 20.1891L42.2584 21.7558C42.2597 21.756 42.261 21.7562 42.2623 21.7564C42.3294 21.7667 42.393 21.7703 42.4508 21.7703C42.8835 21.7703 43.2935 21.5572 43.5407 21.1912L43.5408 21.1911C43.822 20.7746 43.8414 20.2332 43.5904 19.7974L43.5902 19.7969L42.2771 17.5226L44.1258 16.4546C44.8263 18.6244 45.1834 20.8865 45.1834 23.1999C45.1834 35.3302 35.3142 45.2 23.184 45.2C11.0544 45.2 1.18402 35.3302 1.18402 23.1999C1.18402 11.0697 11.0538 1.19995 23.184 1.19995C29.674 1.19995 35.864 4.11651 40.0248 9.05944L38.0494 10.1998L36.7367 7.92549L35.5043 7.27087ZM22.049 20.9699C19.4412 20.3457 17.5797 17.5058 17.5802 14.291L22.049 20.9699ZM22.049 20.9699H19.128C15.0027 20.9699 11.6476 24.3251 11.6476 28.4497V36.6837C11.6476 37.4104 12.2364 37.9992 12.9631 37.9992H33.4043C34.1302 37.9992 34.7199 37.4106 34.7199 36.6837V28.4497C34.7199 24.3251 31.3647 20.9699 27.2401 20.9699H24.2116C26.819 20.3458 28.6811 17.5063 28.6811 14.291C28.6811 12.557 28.1689 11.0801 27.2119 10.031C26.2506 8.97729 24.8813 8.40069 23.2636 8.40069C21.6122 8.40069 20.1828 9.00291 19.1672 10.059C18.1529 11.1136 17.5802 12.5903 17.5802 14.2909L22.049 20.9699ZM20.2119 14.2904V14.2903C20.2116 13.028 20.6411 12.2336 21.2007 11.7479C21.7736 11.2506 22.5363 11.0312 23.2636 11.0312C24.193 11.0312 24.8657 11.3317 25.3135 11.8439C25.7698 12.3658 26.05 13.1734 26.05 14.2904C26.05 15.484 25.6941 16.5469 25.1438 17.2993C24.593 18.0524 23.8748 18.4654 23.1309 18.4654C22.387 18.4654 21.6688 18.0525 21.1181 17.2995C20.5678 16.5472 20.2119 15.4843 20.2119 14.2904ZM19.1274 23.601H27.2395C29.9125 23.601 32.0888 25.7768 32.0888 28.4497V35.3681H29.7077V29.5898C29.7077 28.8636 29.1194 28.2737 28.3922 28.2737C27.6646 28.2737 27.076 28.8633 27.076 29.5898V35.3675H19.2926V29.5898C19.2926 28.8633 18.704 28.2737 17.9764 28.2737C17.2501 28.2737 16.6609 28.8633 16.6609 29.5898V35.3675H14.2787V28.4497C14.2787 25.7767 16.4538 23.601 19.1274 23.601Z" fill="white" stroke="black"/>
</svg>
