<svg width="18" height="18" viewBox="0 0 18 18" fill="none" xmlns="http://www.w3.org/2000/svg">
<path fill-rule="evenodd" clip-rule="evenodd" d="M1.41412 1.41422C0.633118 2.19522 0.633118 3.46158 1.41412 4.24258L6.58575 9.41422L1.85785 14.1421C1.07672 14.9232 1.07672 16.1895 1.85785 16.9706C2.63885 17.7516 3.90521 17.7516 4.68622 16.9706L9.41425 12.2427L14.142 16.9705C14.9232 17.7516 16.1894 17.7516 16.9705 16.9705C17.7515 16.1895 17.7515 14.9231 16.9705 14.1421L12.2426 9.41422L17.4141 4.24271C18.1953 3.46158 18.1953 2.19534 17.4141 1.41422C16.6331 0.633209 15.3668 0.633209 14.5858 1.41422L9.41425 6.58572L4.24261 1.41422C3.46149 0.633087 2.19525 0.633087 1.41412 1.41422Z" fill="#6E6E73"/>
</svg>
