<?xml version="1.0" encoding="utf-8"?>
<!-- Generator: Adobe Illustrator 28.0.0, SVG Export Plug-In . SVG Version: 6.00 Build 0)  -->
<svg version="1.1" id="Слой_1" xmlns="http://www.w3.org/2000/svg" xmlns:xlink="http://www.w3.org/1999/xlink" x="0px" y="0px"
	 viewBox="0 0 595.28 841.89" style="enable-background:new 0 0 595.28 841.89;" xml:space="preserve">
<style type="text/css">
	.st0{fill:#12100E;}
</style>
<path class="st0" d="M307.33,464.14v34.92c-15.28-6.55-32.74-6.55-48.02-4.36c-17.46,2.18-32.74,8.73-45.83,17.46
	c-13.1,8.73-24.01,21.83-32.74,37.1c-6.55,15.28-10.91,30.56-10.91,48.02h-34.92c0-21.83,4.36-41.47,13.1-61.11
	c8.73-19.64,21.83-34.92,39.29-48.02c17.46-13.1,34.92-21.83,56.75-26.19C265.87,459.77,285.51,459.77,307.33,464.14L307.33,464.14z
	 M272.41,444.5c-56.75,0-102.58-45.83-102.58-102.58c0-56.75,45.83-102.58,102.58-102.58s102.58,45.83,102.58,102.58
	C374.99,398.66,329.16,444.5,272.41,444.5z M272.41,409.58c37.1,0,67.66-30.56,67.66-67.66s-30.56-67.66-67.66-67.66
	s-67.66,30.56-67.66,67.66S235.31,409.58,272.41,409.58z M399,512.15h61.11v34.92H399l30.56,30.56l-24.01,24.01l-72.02-72.02
	l72.02-72.02l24.01,24.01L399,512.15z"/>
</svg>
