<?xml version="1.0" encoding="utf-8"?>
<!-- Generator: Adobe Illustrator 28.0.0, SVG Export Plug-In . SVG Version: 6.00 Build 0)  -->
<svg version="1.1" id="Слой_1" xmlns="http://www.w3.org/2000/svg" xmlns:xlink="http://www.w3.org/1999/xlink" x="0px" y="0px"
	 viewBox="0 0 595.28 841.89" style="enable-background:new 0 0 595.28 841.89;" xml:space="preserve">
<style type="text/css">
	.st0{fill:#12100E;}
</style>
<path class="st0" d="M345.01,367.19h118.18c9.27,0,18.54,4.63,25.49,11.59c6.95,6.95,11.59,16.22,11.59,25.49v39.39
	c0,4.63,0,9.27-2.32,13.9L440.02,596.6c-2.32,2.32-4.63,6.95-6.95,9.27c-2.32,2.32-6.95,2.32-9.27,2.32H113.29
	c-4.63,0-9.27-2.32-13.9-4.63c-2.32-4.63-4.63-6.95-4.63-13.9V404.27c0-4.63,2.32-9.27,4.63-13.9c4.63-2.32,6.95-4.63,13.9-4.63
	h64.88c2.32,0,6.95,0,9.27-2.32c2.32-2.32,4.63-2.32,6.95-4.63l99.64-141.35c2.32-2.32,2.32-2.32,4.63-4.63c2.32,0,4.63,0,6.95,0
	l32.44,16.22c9.27,4.63,16.22,11.59,20.85,20.85c4.63,9.27,4.63,20.85,2.32,30.12L345.01,367.19z M205.98,415.85v155.25H409.9
	l53.3-127.45v-39.39H345.01c-4.63,0-11.59-2.32-16.22-4.63c-4.63-2.32-9.27-6.95-13.9-11.59c-4.63-4.63-6.95-9.27-6.95-13.9
	c0-4.63,0-11.59,0-16.22l16.22-64.88c0-2.32,0-4.63,0-6.95s-2.32-4.63-4.63-4.63l-11.59-6.95L222.2,397.32
	C217.57,406.58,212.93,411.22,205.98,415.85z M168.91,422.81h-37.08v145.98h37.08V422.81z"/>
</svg>
