<?xml version="1.0" encoding="utf-8"?>
<!-- Generator: Adobe Illustrator 28.0.0, SVG Export Plug-In . SVG Version: 6.00 Build 0)  -->
<svg version="1.1" id="Слой_1" xmlns="http://www.w3.org/2000/svg" xmlns:xlink="http://www.w3.org/1999/xlink" x="0px" y="0px"
	 viewBox="0 0 595.28 841.89" style="enable-background:new 0 0 595.28 841.89;" xml:space="preserve">
<style type="text/css">
	.st0{fill:#12100E;}
</style>
<path class="st0" d="M294.06,257.53l134.34,30.08c8.02,2.01,12.03,8.02,12.03,16.04v162.41c0,32.08-16.04,62.16-44.11,80.2
	l-102.26,68.17L191.8,546.26c-28.07-18.05-44.11-48.12-44.11-80.2V303.65c0-8.02,6.02-14.04,12.03-16.04L294.06,257.53z
	 M294.06,291.62l-114.29,26.07v148.37c0,22.06,10.03,42.11,28.07,54.14l84.21,56.14l84.21-56.14
	c18.05-12.03,28.07-32.08,28.07-54.14V317.68L294.06,291.62L294.06,291.62z M366.24,373.82l22.06,22.06L284.03,500.14l-68.17-68.17
	l22.06-22.06l46.12,46.12L366.24,373.82L366.24,373.82z"/>
</svg>
